REM DIRINDEX 1\2,1\3,1\4,1\5
REM DIRNAME cjc005,folder01,folder02,folder03,folder04
TITLE ""
FILE "P1Q_t_1451-1460.mp3" MP3
  TRACK 01 AUDIO
    TITLE "3:cjc005_5261"
    INDEX 01 00:00:00
  TRACK 02 AUDIO
    TITLE "0:"
    INDEX 01 00:01:13
  TRACK 03 AUDIO
    TITLE "4:cjc005_5262"
    INDEX 01 00:01:38
  TRACK 04 AUDIO
    TITLE "0:"
    INDEX 01 00:03:08
  TRACK 05 AUDIO
    TITLE "5:cjc005_5263"
    INDEX 01 00:03:35
  TRACK 06 AUDIO
    TITLE "0:"
    INDEX 01 00:07:07
  TRACK 07 AUDIO
    TITLE "3:cjc005_5264"
    INDEX 01 00:07:58
  TRACK 08 AUDIO
    TITLE "0:"
    INDEX 01 00:08:73
  TRACK 09 AUDIO
    TITLE "4:cjc005_5265"
    INDEX 01 00:09:20
  TRACK 10 AUDIO
    TITLE "0:"
    INDEX 01 00:10:53
  TRACK 11 AUDIO
    TITLE "5:cjc005_5266"
    INDEX 01 00:11:05
  TRACK 12 AUDIO
    TITLE "0:"
    INDEX 01 00:15:01
  TRACK 13 AUDIO
    TITLE "3:cjc005_5267"
    INDEX 01 00:15:50
  TRACK 14 AUDIO
    TITLE "0:"
    INDEX 01 00:16:69
  TRACK 15 AUDIO
    TITLE "4:cjc005_5268"
    INDEX 01 00:17:23
  TRACK 16 AUDIO
    TITLE "0:"
    INDEX 01 00:18:54
  TRACK 17 AUDIO
    TITLE "5:cjc005_5269"
    INDEX 01 00:19:01
  TRACK 18 AUDIO
    TITLE "0:"
    INDEX 01 00:24:14
  TRACK 19 AUDIO
    TITLE "3:cjc005_5270"
    INDEX 01 00:24:61
  TRACK 20 AUDIO
    TITLE "0:"
    INDEX 01 00:26:03
  TRACK 21 AUDIO
    TITLE "4:cjc005_5271"
    INDEX 01 00:26:36
  TRACK 22 AUDIO
    TITLE "0:"
    INDEX 01 00:28:29
  TRACK 23 AUDIO
    TITLE "5:cjc005_5272"
    INDEX 01 00:28:49
  TRACK 24 AUDIO
    TITLE "0:"
    INDEX 01 00:31:59
  TRACK 25 AUDIO
    TITLE "3:cjc005_5273"
    INDEX 01 00:32:31
  TRACK 26 AUDIO
    TITLE "0:"
    INDEX 01 00:33:40
  TRACK 27 AUDIO
    TITLE "4:cjc005_5274"
    INDEX 01 00:33:60
  TRACK 28 AUDIO
    TITLE "0:"
    INDEX 01 00:35:23
  TRACK 29 AUDIO
    TITLE "5:cjc005_5275"
    INDEX 01 00:35:51
  TRACK 30 AUDIO
    TITLE "0:"
    INDEX 01 00:41:22
  TRACK 31 AUDIO
    TITLE "3:cjc005_5276"
    INDEX 01 00:42:02
  TRACK 32 AUDIO
    TITLE "0:"
    INDEX 01 00:43:17
  TRACK 33 AUDIO
    TITLE "4:cjc005_5277"
    INDEX 01 00:43:50
  TRACK 34 AUDIO
    TITLE "0:"
    INDEX 01 00:44:48
  TRACK 35 AUDIO
    TITLE "5:cjc005_5278"
    INDEX 01 00:44:71
  TRACK 36 AUDIO
    TITLE "0:"
    INDEX 01 00:48:63
  TRACK 37 AUDIO
    TITLE "3:cjc005_5279"
    INDEX 01 00:49:43
  TRACK 38 AUDIO
    TITLE "0:"
    INDEX 01 00:50:66
  TRACK 39 AUDIO
    TITLE "4:cjc005_5280"
    INDEX 01 00:51:16
  TRACK 40 AUDIO
    TITLE "0:"
    INDEX 01 00:52:39
  TRACK 41 AUDIO
    TITLE "5:cjc005_5281"
    INDEX 01 00:52:67
  TRACK 42 AUDIO
    TITLE "0:"
    INDEX 01 00:57:03
  TRACK 43 AUDIO
    TITLE "3:cjc005_5282"
    INDEX 01 00:57:52
  TRACK 44 AUDIO
    TITLE "0:"
    INDEX 01 00:59:02
  TRACK 45 AUDIO
    TITLE "4:cjc005_5283"
    INDEX 01 00:59:24
  TRACK 46 AUDIO
    TITLE "0:"
    INDEX 01 01:00:37
  TRACK 47 AUDIO
    TITLE "5:cjc005_5284"
    INDEX 01 01:00:57
  TRACK 48 AUDIO
    TITLE "0:"
    INDEX 01 01:04:52
  TRACK 49 AUDIO
    TITLE "3:cjc005_5285"
    INDEX 01 01:05:34
  TRACK 50 AUDIO
    TITLE "0:"
    INDEX 01 01:06:63
  TRACK 51 AUDIO
    TITLE "4:cjc005_5286"
    INDEX 01 01:07:14
  TRACK 52 AUDIO
    TITLE "0:"
    INDEX 01 01:08:29
  TRACK 53 AUDIO
    TITLE "5:cjc005_5287"
    INDEX 01 01:08:54
  TRACK 54 AUDIO
    TITLE "0:"
    INDEX 01 01:12:15
  TRACK 55 AUDIO
    TITLE "3:cjc005_5288"
    INDEX 01 01:12:66
  TRACK 56 AUDIO
    TITLE "0:"
    INDEX 01 01:14:04
  TRACK 57 AUDIO
    TITLE "4:cjc005_5289"
    INDEX 01 01:14:37
  TRACK 58 AUDIO
    TITLE "0:"
    INDEX 01 01:16:34
  TRACK 59 AUDIO
    TITLE "5:cjc005_5290"
    INDEX 01 01:16:54
  TRACK 60 AUDIO
    TITLE "0:"
    INDEX 01 01:20:08
